<svg id="Layer_1" data-name="Layer 1" xmlns="http://www.w3.org/2000/svg" viewBox="0 0 505.91 239.44"><defs><style>.cls-1,.cls-4{fill:#fff;}.cls-1,.cls-2,.cls-3,.cls-4{stroke:#b7b7b7;stroke-width:2px;}.cls-1,.cls-2{stroke-miterlimit:10;}.cls-2,.cls-3,.cls-6{fill:none;}.cls-2{stroke-dasharray:2;}.cls-3,.cls-4{stroke-linejoin:round;}.cls-4{stroke-linecap:round;}.cls-5{fill:#398aff;}.cls-7{fill:#ddd;}</style></defs><title>backpack-hero-image</title><path class="cls-1" d="M33.36,164.86a3,3,0,1,1-3-3A3,3,0,0,1,33.36,164.86Z"/><line class="cls-2" x1="20.58" y1="2.07" x2="20.58" y2="205.53"/><polyline class="cls-3" points="33.34 158.18 37.41 153.56 41.39 158.18"/><line class="cls-2" x1="37.19" y1="153.78" x2="37.19" y2="175.94"/><line class="cls-3" x1="37.19" y1="179.41" x2="37.19" y2="202.27"/><line class="cls-4" x1="30.32" y1="196.27" x2="30.32" y2="173.41"/><path class="cls-5" d="M113.26,92.43s-.53-19.18-.56-19.41a3.5,3.5,0,0,0-2.22-2.9l-5.68-2.21a3.5,3.5,0,0,0-4.54,2L96.36,80c-.6-.15-1.2-.27-1.81-.37V75.81a9.54,9.54,0,1,0-19.08,0V79.6c-.61.1-1.21.23-1.81.37l-3.9-10.06a3.5,3.5,0,0,0-4.54-2l-5.68,2.21A3.43,3.43,0,0,0,57.6,72a3.39,3.39,0,0,0-.28,1c0,.24-.56,19.46-.56,19.46A26.8,26.8,0,0,0,53,106.25v51.63a5.92,5.92,0,0,0,5.91,5.91h52.3a5.92,5.92,0,0,0,5.91-5.91V106.25A26.87,26.87,0,0,0,113.26,92.43ZM110,88.05a25.76,25.76,0,0,0-2-1.94l1.77-4.57Zm-6.84-17a.4.4,0,0,1,.5-.22L109.35,73a.37.37,0,0,1,.21.2.38.38,0,0,1,0,.3l-4.09,10.55a26.91,26.91,0,0,0-6.13-3.21ZM85,69.39a6.42,6.42,0,0,1,6.33,5.4,9.49,9.49,0,0,0-12.66,0A6.43,6.43,0,0,1,85,69.39Zm5.83,9.84H79.18a6.41,6.41,0,0,1,11.66,0Zm-30.39-6a.4.4,0,0,1,.22-.2l5.68-2.21a.4.4,0,0,1,.5.22l3.82,9.84a26.48,26.48,0,0,0-6.13,3.2L60.45,73.53A.38.38,0,0,1,60.45,73.23Zm-.25,8.31L62,86.11a25.76,25.76,0,0,0-2,1.94ZM114,157.88a2.79,2.79,0,0,1-2.79,2.79H58.86a2.8,2.8,0,0,1-2.79-2.79V106.25A23.94,23.94,0,0,1,80,82.34H90A23.94,23.94,0,0,1,114,106.25v51.63Z"/><path class="cls-5" d="M63.83,119.09a4.58,4.58,0,0,0-4.58,4.57v29.43a4.58,4.58,0,0,0,4.58,4.57H106.2a4.58,4.58,0,0,0,4.57-4.57V123.66a4.58,4.58,0,0,0-4.57-4.57Zm42.37,35.45H63.83a1.45,1.45,0,0,1-1.45-1.45V133.46h39.3V137h3.13v-3.55h2.84v19.63A1.45,1.45,0,0,1,106.2,154.54Zm1.45-30.88v6.68H62.38v-6.68a1.45,1.45,0,0,1,1.45-1.44H106.2A1.45,1.45,0,0,1,107.65,123.66Z"/><path class="cls-5" d="M94.92,88.76H75.1v8.92H94.92Zm-3.12,5.8H78.22V91.89H91.8Z"/><line class="cls-2" x1="10.84" y1="0.78" x2="10.84" y2="22.95"/><line class="cls-3" x1="10.84" y1="26.41" x2="10.84" y2="49.27"/><polygon class="cls-6" points="505.91 118.23 505.91 104.54 442.89 104.54 442.89 118.23 469.04 118.23 505.91 118.23"/><path class="cls-6" d="M426.56,83.85a15.44,15.44,0,0,1-15.42-15.42V.78H400.41V84.59A9.42,9.42,0,0,0,409.83,94h22.53V83.85Z"/><path class="cls-6" d="M445.93,2.25H421.67V68.43a4.89,4.89,0,0,0,4.89,4.89h5.83a90.58,90.58,0,0,1,12.81-45S445.54,16.13,445.93,2.25Z"/><rect class="cls-6" x="442.89" y="83.85" width="63.02" height="10.16"/><path class="cls-6" d="M464.16,133.65v22.51h41.75V128.77H469A4.89,4.89,0,0,0,464.16,133.65Z"/><path class="cls-6" d="M442.94,73.32h63V2.25H488.63A80.72,80.72,0,0,0,442.94,73.32Z"/><path class="cls-6" d="M464.16,232.88a4.89,4.89,0,0,0,4.88,4.88h36.87V166.69H464.16Z"/><path class="cls-6" d="M453.63,232.88V133.65A15.43,15.43,0,0,1,469,118.23H442.89V238.85h11.94A15.37,15.37,0,0,1,453.63,232.88Z"/><path class="cls-6" d="M456.18,13.56A89.21,89.21,0,0,1,462.81,7L461,2.25h-4.45Z"/><rect class="cls-7" x="432.36" y="118.23" width="10.53" height="120.62"/><path class="cls-7" d="M488.63,2.25H461L462.81,7a89.21,89.21,0,0,0-6.63,6.56l.33-11.31H445.93c-.39,13.88-.73,26.09-.73,26.09a90.58,90.58,0,0,0-12.81,45h10.55A80.72,80.72,0,0,1,488.63,2.25Z"/><rect class="cls-7" x="432.36" y="104.54" width="10.53" height="13.7"/><rect class="cls-7" x="432.36" y="83.85" width="10.53" height="10.16"/><path class="cls-7" d="M505.91,237.76H469a4.89,4.89,0,0,1-4.88-4.88V166.69h41.75V156.16H464.16V133.65a4.89,4.89,0,0,1,4.88-4.88h36.87V118.23H469a15.43,15.43,0,0,0-15.41,15.42v99.23a15.37,15.37,0,0,0,1.2,6h51.08Z"/><path class="cls-7" d="M409.83,94a9.42,9.42,0,0,1-9.42-9.41V.78H389.88V84.59a20,20,0,0,0,19.95,20h22.53V94Z"/><rect class="cls-7" x="442.89" y="94" width="63.02" height="10.53"/><rect class="cls-7" x="432.36" y="94" width="10.53" height="10.53"/><path class="cls-7" d="M442.94,73.32c0,.54-.05,1.07-.05,1.61v8.92h63V73.32Z"/><path class="cls-7" d="M488.63,2.25h17.28V.78h-14Q490.23,1.49,488.63,2.25Z"/><path class="cls-7" d="M432.39,73.32h-5.83a4.89,4.89,0,0,1-4.89-4.89V2.25h24.26c0-.49,0-1,.05-1.47H411.14V68.43a15.44,15.44,0,0,0,15.42,15.42h5.8V74.93C432.36,74.39,432.38,73.86,432.39,73.32Z"/><polygon class="cls-7" points="456.56 0.78 456.51 2.25 460.96 2.25 460.4 0.78 456.56 0.78"/><path class="cls-7" d="M456.56.78H446c0,.49,0,1-.05,1.47h10.58Z"/><path class="cls-7" d="M461,2.25h27.67q1.61-.77,3.24-1.47H460.4Z"/><path class="cls-7" d="M442.94,73.32H432.39c0,.54,0,1.07,0,1.61v8.92h10.53V74.93C442.89,74.39,442.92,73.86,442.94,73.32Z"/><rect class="cls-5" y="205.36" width="505.91" height="33.67"/></svg>