<?xml version="1.0" encoding="utf-8"?>
<!-- Generator: Adobe Illustrator 24.0.3, SVG Export Plug-In . SVG Version: 6.00 Build 0)  -->
<svg version="1.1" id="Layer_1" xmlns="http://www.w3.org/2000/svg" xmlns:xlink="http://www.w3.org/1999/xlink" x="0px" y="0px"
	 viewBox="562.205 0.086 505.913 239.441" enable-background="new 562.205 0.086 505.913 239.441" xml:space="preserve">
<ellipse transform="matrix(0.2229 -0.9748 0.9748 0.2229 -66.1102 336.779)" fill="#EFE5CB" cx="178.176" cy="209.854" rx="17.923" ry="17.923"/>
<path fill="#EFE5CB" d="M357.863,226.76c0,6.667-5.404,12.071-12.07,12.071c-6.667,0-12.072-5.404-12.072-12.071
	c0-6.667,5.405-12.071,12.072-12.071C352.46,214.688,357.863,220.093,357.863,226.76z"/>
<ellipse transform="matrix(0.2315 -0.9728 0.9728 0.2315 202.6494 659.547)" fill="#EFE5CB" cx="518.793" cy="201.504" rx="22.579" ry="22.579"/>
<path fill="#EFE5CB" d="M456.695,23.953c0,9.898-8.023,17.923-17.922,17.923c-9.898,0-17.924-8.024-17.924-17.923
	c0-9.898,8.025-17.923,17.924-17.923C448.671,6.03,456.695,14.054,456.695,23.953z"/>
<path fill="#EFE5CB" d="M246.248,41.492c0,11.847-9.606,21.452-21.453,21.452c-11.848,0-21.451-9.604-21.451-21.452
	c0-11.848,9.603-21.452,21.451-21.452C236.643,20.04,246.248,29.645,246.248,41.492z"/>
<ellipse transform="matrix(0.7346 -0.6786 0.6786 0.7346 -99.2477 85.4079)" fill="#EFE5CB" cx="59.539" cy="169.555" rx="22.461" ry="22.461"/>
<ellipse transform="matrix(0.0213 -0.9998 0.9998 0.0213 40.8087 178.0917)" fill="#398AFF" cx="111.368" cy="68.202" rx="48.225" ry="48.225"/>
<line fill="#FFFFFF" stroke="#B7B7B7" stroke-width="2" stroke-linejoin="round" stroke-miterlimit="10" x1="393.68" y1="195.4" x2="393.68" y2="183.392"/>
<line fill="#FFFFFF" stroke="#B7B7B7" stroke-width="2" stroke-linejoin="round" stroke-miterlimit="10" x1="386.764" y1="203.398" x2="386.764" y2="191.39"/>
<line fill="#FFFFFF" stroke="#B7B7B7" stroke-width="2" stroke-linejoin="round" stroke-miterlimit="10" x1="443.867" y1="12.781" x2="443.867" y2="0.773"/>
<line fill="#FFFFFF" stroke="#B7B7B7" stroke-width="2" stroke-linejoin="round" stroke-miterlimit="10" x1="268.306" y1="39.087" x2="268.306" y2="27.079"/>
<line fill="#FFFFFF" stroke="#B7B7B7" stroke-width="2" stroke-linejoin="round" stroke-miterlimit="10" x1="83.775" y1="223.989" x2="83.775" y2="211.981"/>
<line fill="#FFFFFF" stroke="#B7B7B7" stroke-width="2" stroke-linejoin="round" stroke-miterlimit="10" x1="76.859" y1="231.987" x2="76.859" y2="219.979"/>
<line fill="#FFFFFF" stroke="#B7B7B7" stroke-width="2" stroke-linejoin="round" stroke-miterlimit="10" x1="53.418" y1="19.639" x2="53.418" y2="7.631"/>
<line fill="#FFFFFF" stroke="#B7B7B7" stroke-width="2" stroke-linejoin="round" stroke-miterlimit="10" x1="46.502" y1="27.637" x2="46.502" y2="15.63"/>
<line fill="#FFFFFF" stroke="#B7B7B7" stroke-width="2" stroke-linejoin="round" stroke-miterlimit="10" x1="407.562" y1="168.888" x2="407.562" y2="184.531"/>
<line fill="#FFFFFF" stroke="#B7B7B7" stroke-width="2" stroke-linejoin="round" stroke-miterlimit="10" x1="194.009" y1="35.984" x2="194.009" y2="23.976"/>
<line fill="#FFFFFF" stroke="#B7B7B7" stroke-width="2" stroke-linejoin="round" stroke-miterlimit="10" x1="207.89" y1="9.472" x2="207.89" y2="25.115"/>
<line fill="#FFFFFF" stroke="#B7B7B7" stroke-width="2" stroke-linejoin="round" stroke-miterlimit="10" x1="372.544" y1="187.998" x2="372.544" y2="193.407"/>
<line fill="#FFFFFF" stroke="#B7B7B7" stroke-width="2" stroke-linejoin="round" stroke-miterlimit="10" x1="427.962" y1="184.023" x2="427.962" y2="199.666"/>
<line fill="#FFFFFF" stroke="#B7B7B7" stroke-width="2" stroke-linejoin="round" stroke-miterlimit="10" x1="427.96" y1="175.197" x2="427.96" y2="180.606"/>
<line fill="#FFFFFF" stroke="#B7B7B7" stroke-width="2" stroke-linejoin="round" stroke-miterlimit="10" x1="171.809" y1="164.72" x2="171.809" y2="180.363"/>
<line fill="#FFFFFF" stroke="#B7B7B7" stroke-width="2" stroke-linejoin="round" stroke-miterlimit="10" x1="171.807" y1="155.894" x2="171.807" y2="161.303"/>
<line fill="#FFFFFF" stroke="#B7B7B7" stroke-width="2" stroke-linejoin="round" stroke-miterlimit="10" x1="63.003" y1="193.765" x2="63.003" y2="209.408"/>
<line fill="#FFFFFF" stroke="#B7B7B7" stroke-width="2" stroke-linejoin="round" stroke-miterlimit="10" x1="63.001" y1="184.939" x2="63.001" y2="190.348"/>
<line fill="#FFFFFF" stroke="#B7B7B7" stroke-width="2" stroke-linejoin="round" stroke-miterlimit="10" x1="185.06" y1="26.145" x2="185.06" y2="41.788"/>
<line fill="#FFFFFF" stroke="#B7B7B7" stroke-width="2" stroke-linejoin="round" stroke-miterlimit="10" x1="185.058" y1="17.319" x2="185.058" y2="22.728"/>
<line fill="#FFFFFF" stroke="#B7B7B7" stroke-width="2" stroke-linejoin="round" stroke-miterlimit="10" x1="466.572" y1="30.826" x2="466.572" y2="46.469"/>
<line fill="#FFFFFF" stroke="#B7B7B7" stroke-width="2" stroke-linejoin="round" stroke-miterlimit="10" x1="466.57" y1="22" x2="466.57" y2="27.409"/>
<polyline fill="#FFFFFF" stroke="#B7B7B7" stroke-width="2" stroke-linejoin="round" stroke-miterlimit="10" points="
	359.985,33.843 355.92,29.228 351.94,33.843 "/>
<line fill="#FFFFFF" stroke="#B7B7B7" stroke-width="2" stroke-linejoin="round" stroke-miterlimit="10" x1="356.134" y1="29.444" x2="356.134" y2="51.611"/>
<line fill="#FFFFFF" stroke="#B7B7B7" stroke-width="2" stroke-linejoin="round" stroke-miterlimit="10" x1="363.86" y1="45.634" x2="363.86" y2="67.8"/>
<polyline fill="#FFFFFF" stroke="#B7B7B7" stroke-width="2" stroke-linejoin="round" stroke-miterlimit="10" points="
	65.087,129.519 61.022,124.904 57.042,129.519 "/>
<line fill="#FFFFFF" stroke="#B7B7B7" stroke-width="2" stroke-linejoin="round" stroke-miterlimit="10" x1="61.236" y1="125.121" x2="61.236" y2="147.287"/>
<line fill="#FFFFFF" stroke="#B7B7B7" stroke-width="2" stroke-linejoin="round" stroke-miterlimit="10" x1="68.962" y1="141.31" x2="68.962" y2="163.476"/>
<g>
	
		<line fill="#FFFFFF" stroke="#B7B7B7" stroke-width="2" stroke-miterlimit="10" x1="224.154" y1="46.297" x2="224.154" y2="49.616"/>
	
		<line fill="#FFFFFF" stroke="#B7B7B7" stroke-width="2" stroke-miterlimit="10" x1="219.218" y1="50.943" x2="222.537" y2="50.943"/>
	
		<line fill="#FFFFFF" stroke="#B7B7B7" stroke-width="2" stroke-miterlimit="10" x1="224.154" y1="55.749" x2="224.154" y2="52.431"/>
	
		<line fill="#FFFFFF" stroke="#B7B7B7" stroke-width="2" stroke-miterlimit="10" x1="229.092" y1="51.103" x2="225.772" y2="51.103"/>
</g>
<g>
	
		<line fill="#FFFFFF" stroke="#B7B7B7" stroke-width="2" stroke-miterlimit="10" x1="370.926" y1="207.307" x2="370.926" y2="210.627"/>
	
		<line fill="#FFFFFF" stroke="#B7B7B7" stroke-width="2" stroke-miterlimit="10" x1="365.989" y1="211.954" x2="369.309" y2="211.954"/>
	
		<line fill="#FFFFFF" stroke="#B7B7B7" stroke-width="2" stroke-miterlimit="10" x1="370.926" y1="216.76" x2="370.926" y2="213.441"/>
	
		<line fill="#FFFFFF" stroke="#B7B7B7" stroke-width="2" stroke-miterlimit="10" x1="375.863" y1="212.113" x2="372.544" y2="212.113"/>
</g>
<g>
	
		<line fill="#FFFFFF" stroke="#B7B7B7" stroke-width="2" stroke-miterlimit="10" x1="254.03" y1="211.452" x2="254.03" y2="214.771"/>
	
		<line fill="#FFFFFF" stroke="#B7B7B7" stroke-width="2" stroke-miterlimit="10" x1="249.095" y1="216.098" x2="252.413" y2="216.098"/>
	
		<line fill="#FFFFFF" stroke="#B7B7B7" stroke-width="2" stroke-miterlimit="10" x1="254.03" y1="220.904" x2="254.03" y2="217.586"/>
	
		<line fill="#FFFFFF" stroke="#B7B7B7" stroke-width="2" stroke-miterlimit="10" x1="258.968" y1="216.258" x2="255.649" y2="216.258"/>
</g>
<g>
	<line fill="#FFFFFF" stroke="#B7B7B7" stroke-width="2" stroke-miterlimit="10" x1="55.75" y1="169.555" x2="55.75" y2="172.875"/>
	
		<line fill="#FFFFFF" stroke="#B7B7B7" stroke-width="2" stroke-miterlimit="10" x1="50.814" y1="174.202" x2="54.133" y2="174.202"/>
	<line fill="#FFFFFF" stroke="#B7B7B7" stroke-width="2" stroke-miterlimit="10" x1="55.75" y1="179.008" x2="55.75" y2="175.689"/>
	
		<line fill="#FFFFFF" stroke="#B7B7B7" stroke-width="2" stroke-miterlimit="10" x1="60.688" y1="174.361" x2="57.368" y2="174.361"/>
</g>
<line fill="#FFFFFF" stroke="#B7B7B7" stroke-width="2" stroke-linejoin="round" stroke-miterlimit="10" x1="525.427" y1="211.593" x2="525.427" y2="227.236"/>
<g>
	
		<line fill="#FFFFFF" stroke="#B7B7B7" stroke-width="2" stroke-miterlimit="10" x1="518.175" y1="187.383" x2="518.175" y2="190.702"/>
	
		<line fill="#FFFFFF" stroke="#B7B7B7" stroke-width="2" stroke-miterlimit="10" x1="513.238" y1="192.029" x2="516.558" y2="192.029"/>
	
		<line fill="#FFFFFF" stroke="#B7B7B7" stroke-width="2" stroke-miterlimit="10" x1="518.175" y1="196.835" x2="518.175" y2="193.517"/>
	
		<line fill="#FFFFFF" stroke="#B7B7B7" stroke-width="2" stroke-miterlimit="10" x1="523.112" y1="192.189" x2="519.793" y2="192.189"/>
</g>
<path fill="#FFFFFF" stroke="#B7B7B7" stroke-width="2" stroke-miterlimit="10" d="M176.468,21.633c0,1.677-1.36,3.036-3.036,3.036
	c-1.677,0-3.036-1.359-3.036-3.036c0-1.677,1.359-3.036,3.036-3.036C175.108,18.597,176.468,19.957,176.468,21.633z"/>
<path fill="#FFFFFF" stroke="#B7B7B7" stroke-width="2" stroke-miterlimit="10" d="M96.007,139.954c0,1.677-1.36,3.036-3.036,3.036
	c-1.677,0-3.036-1.359-3.036-3.036c0-1.677,1.359-3.036,3.036-3.036C94.647,136.918,96.007,138.277,96.007,139.954z"/>
<path fill="#FFFFFF" stroke="#B7B7B7" stroke-width="2" stroke-miterlimit="10" d="M595.563,164.947
	c0,1.677-1.359,3.036-3.036,3.036c-1.677,0-3.036-1.359-3.036-3.036c0-1.677,1.359-3.036,3.036-3.036
	C594.204,161.911,595.563,163.271,595.563,164.947z"/>
<path fill="#FFFFFF" stroke="#B7B7B7" stroke-width="2" stroke-miterlimit="10" d="M430.997,225.02c0,1.677-1.36,3.036-3.036,3.036
	c-1.677,0-3.036-1.359-3.036-3.036c0-1.677,1.359-3.036,3.036-3.036C429.636,221.984,430.997,223.343,430.997,225.02z"/>
<g>
	
		<line fill="#FFFFFF" stroke="#B7B7B7" stroke-width="2" stroke-miterlimit="10" x1="349.069" y1="226.514" x2="349.069" y2="229.834"/>
	
		<line fill="#FFFFFF" stroke="#B7B7B7" stroke-width="2" stroke-miterlimit="10" x1="344.133" y1="231.161" x2="347.452" y2="231.161"/>
	
		<line fill="#FFFFFF" stroke="#B7B7B7" stroke-width="2" stroke-miterlimit="10" x1="349.069" y1="235.967" x2="349.069" y2="232.648"/>
	
		<line fill="#FFFFFF" stroke="#B7B7B7" stroke-width="2" stroke-miterlimit="10" x1="354.007" y1="231.32" x2="350.687" y2="231.32"/>
</g>
<polyline fill="none" stroke="#B7B7B7" stroke-width="2" stroke-linejoin="round" stroke-miterlimit="10" points="352.794,174.116 
	356.858,169.5 360.839,174.116 "/>
<line fill="none" stroke="#B7B7B7" stroke-width="2" stroke-miterlimit="10" stroke-dasharray="2" x1="356.645" y1="169.717" x2="356.645" y2="191.884"/>
<line fill="none" stroke="#B7B7B7" stroke-width="2" stroke-linejoin="round" stroke-miterlimit="10" x1="356.645" y1="195.348" x2="356.645" y2="218.208"/>
<line fill="#FFFFFF" stroke="#B7B7B7" stroke-width="2" stroke-linecap="round" stroke-linejoin="round" stroke-miterlimit="10" x1="349.774" y1="212.209" x2="349.774" y2="189.349"/>
<g>
	
		<line fill="#FFFFFF" stroke="#B7B7B7" stroke-width="2" stroke-miterlimit="10" x1="42.384" y1="116.165" x2="42.384" y2="119.484"/>
	
		<line fill="#FFFFFF" stroke="#B7B7B7" stroke-width="2" stroke-miterlimit="10" x1="37.448" y1="120.811" x2="40.767" y2="120.811"/>
	
		<line fill="#FFFFFF" stroke="#B7B7B7" stroke-width="2" stroke-miterlimit="10" x1="42.384" y1="125.617" x2="42.384" y2="122.299"/>
	<line fill="#FFFFFF" stroke="#B7B7B7" stroke-width="2" stroke-miterlimit="10" x1="47.322" y1="120.97" x2="44.002" y2="120.97"/>
</g>
<polyline fill="none" stroke="#B7B7B7" stroke-width="2" stroke-linejoin="round" stroke-miterlimit="10" points="46.109,35.766 
	50.174,31.15 54.154,35.766 "/>
<line fill="none" stroke="#B7B7B7" stroke-width="2" stroke-miterlimit="10" stroke-dasharray="2" x1="49.96" y1="31.368" x2="49.96" y2="53.534"/>
<line fill="none" stroke="#B7B7B7" stroke-width="2" stroke-miterlimit="10" stroke-dasharray="2" x1="254.03" y1="10.927" x2="254.03" y2="33.094"/>
<line fill="none" stroke="#B7B7B7" stroke-width="2" stroke-miterlimit="10" stroke-dasharray="2" x1="582.786" y1="2.161" x2="582.786" y2="205.615"/>
<line fill="none" stroke="#B7B7B7" stroke-width="2" stroke-linejoin="round" stroke-miterlimit="10" x1="49.96" y1="56.999" x2="49.96" y2="79.858"/>
<line fill="#FFFFFF" stroke="#B7B7B7" stroke-width="2" stroke-linecap="round" stroke-linejoin="round" stroke-miterlimit="10" x1="43.089" y1="73.859" x2="43.089" y2="51"/>
<g>
	
		<line fill="#FFFFFF" stroke="#B7B7B7" stroke-width="2" stroke-miterlimit="10" x1="379.756" y1="59.176" x2="379.756" y2="62.495"/>
	
		<line fill="#FFFFFF" stroke="#B7B7B7" stroke-width="2" stroke-miterlimit="10" x1="374.819" y1="63.822" x2="378.139" y2="63.822"/>
	
		<line fill="#FFFFFF" stroke="#B7B7B7" stroke-width="2" stroke-miterlimit="10" x1="379.756" y1="68.628" x2="379.756" y2="65.309"/>
	
		<line fill="#FFFFFF" stroke="#B7B7B7" stroke-width="2" stroke-miterlimit="10" x1="384.693" y1="63.981" x2="381.374" y2="63.981"/>
</g>
<polyline fill="none" stroke="#B7B7B7" stroke-width="2" stroke-linejoin="round" stroke-miterlimit="10" points="595.548,158.263 
	599.612,153.647 603.592,158.263 "/>
<line fill="none" stroke="#B7B7B7" stroke-width="2" stroke-miterlimit="10" stroke-dasharray="2" x1="599.398" y1="153.864" x2="599.398" y2="176.031"/>
<line fill="none" stroke="#B7B7B7" stroke-width="2" stroke-linejoin="round" stroke-miterlimit="10" x1="599.398" y1="179.495" x2="599.398" y2="202.355"/>
<line fill="#FFFFFF" stroke="#B7B7B7" stroke-width="2" stroke-linecap="round" stroke-linejoin="round" stroke-miterlimit="10" x1="592.527" y1="196.356" x2="592.527" y2="173.496"/>
<g>
	<line fill="none" stroke="#B7B7B7" stroke-width="2" stroke-miterlimit="10" x1="160.836" y1="23.537" x2="156.268" y2="23.537"/>
	<line fill="none" stroke="#B7B7B7" stroke-width="2" stroke-miterlimit="10" x1="162.59" y1="16.705" x2="158.715" y2="14.489"/>
	<line fill="none" stroke="#B7B7B7" stroke-width="2" stroke-miterlimit="10" x1="167.643" y1="11.704" x2="165.407" y2="7.868"/>
	<line fill="none" stroke="#B7B7B7" stroke-width="2" stroke-miterlimit="10" x1="174.545" y1="9.827" x2="174.545" y2="5.259"/>
</g>
<g>
	<line fill="none" stroke="#B7B7B7" stroke-width="2" stroke-miterlimit="10" x1="520.824" y1="6.76" x2="520.824" y2="2.192"/>
	<line fill="none" stroke="#B7B7B7" stroke-width="2" stroke-miterlimit="10" x1="527.656" y1="8.516" x2="529.872" y2="4.641"/>
	<line fill="none" stroke="#B7B7B7" stroke-width="2" stroke-miterlimit="10" x1="532.657" y1="13.569" x2="536.493" y2="11.332"/>
	<line fill="none" stroke="#B7B7B7" stroke-width="2" stroke-miterlimit="10" x1="534.534" y1="20.471" x2="539.102" y2="20.469"/>
</g>
<g>
	<line fill="none" stroke="#B7B7B7" stroke-width="2" stroke-miterlimit="10" x1="77.041" y1="187.402" x2="72.472" y2="187.402"/>
	<line fill="none" stroke="#B7B7B7" stroke-width="2" stroke-miterlimit="10" x1="78.796" y1="180.57" x2="74.922" y2="178.354"/>
	<line fill="none" stroke="#B7B7B7" stroke-width="2" stroke-miterlimit="10" x1="83.85" y1="175.569" x2="81.613" y2="171.733"/>
	<line fill="none" stroke="#B7B7B7" stroke-width="2" stroke-miterlimit="10" x1="90.752" y1="173.692" x2="90.75" y2="169.125"/>
</g>
<g>
	<line fill="none" stroke="#B7B7B7" stroke-width="2" stroke-miterlimit="10" x1="336.133" y1="9.299" x2="336.133" y2="4.731"/>
	<line fill="none" stroke="#B7B7B7" stroke-width="2" stroke-miterlimit="10" x1="342.965" y1="11.055" x2="345.181" y2="7.18"/>
	<line fill="none" stroke="#B7B7B7" stroke-width="2" stroke-miterlimit="10" x1="347.966" y1="16.108" x2="351.802" y2="13.871"/>
	<line fill="none" stroke="#B7B7B7" stroke-width="2" stroke-miterlimit="10" x1="349.843" y1="23.01" x2="354.41" y2="23.008"/>
</g>
<g>
	<g>
		<path fill="none" stroke="#B7B7B7" stroke-width="2" stroke-linejoin="round" stroke-miterlimit="10" d="M233.011,199.749
			c0-13.796-11.184-24.977-24.979-24.977c-13.797,0-24.979,11.182-24.979,24.977h-6.61v11.442h62.616v-11.442H233.011z
			 M194.443,199.749c0-7.506,6.081-13.592,13.589-13.592c7.506,0,13.592,6.086,13.592,13.592H194.443z"/>
	</g>
</g>
<g>
	<g>
		<g>
			<g>
				<path fill="#FFFFFF" stroke="#B7B7B7" stroke-width="2" stroke-linejoin="round" stroke-miterlimit="10" d="M491.768,21.392
					c-1.482-4.351-2.372-4.549-2.372-4.549s-0.89,0.198-2.374,4.548c-1.482,4.35-1.581,5.339-1.581,5.339l3.955-0.001l3.952,0.001
					C493.348,26.73,493.25,25.74,491.768,21.392z"/>
				
					<rect x="485.425" y="26.73" fill="#FFFFFF" stroke="#B7B7B7" stroke-width="2" stroke-linejoin="round" stroke-miterlimit="10" width="7.909" height="57.764"/>
			</g>
		</g>
		
			<rect x="485.412" y="39.086" fill="#FFFFFF" stroke="#B7B7B7" stroke-width="2" stroke-linejoin="round" stroke-miterlimit="10" width="7.932" height="2.255"/>
	</g>
	<g>
		<g>
			<g>
				<path fill="#FFFFFF" stroke="#B7B7B7" stroke-width="2" stroke-linejoin="round" stroke-miterlimit="10" d="M500.441,21.392
					c-1.481-4.351-2.372-4.549-2.372-4.549s-0.89,0.198-2.373,4.548c-1.481,4.35-1.581,5.339-1.581,5.339l3.954-0.001l3.953,0.001
					C502.022,26.73,501.924,25.74,500.441,21.392z"/>
				
					<rect x="494.1" y="26.73" fill="#FFFFFF" stroke="#B7B7B7" stroke-width="2" stroke-linejoin="round" stroke-miterlimit="10" width="7.908" height="57.764"/>
			</g>
		</g>
		
			<rect x="494.086" y="39.086" fill="#FFFFFF" stroke="#B7B7B7" stroke-width="2" stroke-linejoin="round" stroke-miterlimit="10" width="7.933" height="2.255"/>
	</g>
	<g>
		<g>
			<g>
				<path fill="#FFFFFF" stroke="#B7B7B7" stroke-width="2" stroke-linejoin="round" stroke-miterlimit="10" d="M509.115,21.392
					c-1.48-4.351-2.371-4.549-2.371-4.549s-0.889,0.198-2.373,4.548c-1.482,4.35-1.582,5.339-1.582,5.339l3.955-0.001l3.953,0.001
					C510.697,26.73,510.599,25.74,509.115,21.392z"/>
				
					<rect x="502.774" y="26.73" fill="#FFFFFF" stroke="#B7B7B7" stroke-width="2" stroke-linejoin="round" stroke-miterlimit="10" width="7.909" height="57.764"/>
			</g>
		</g>
		
			<rect x="502.76" y="39.086" fill="#FFFFFF" stroke="#B7B7B7" stroke-width="2" stroke-linejoin="round" stroke-miterlimit="10" width="7.934" height="2.255"/>
	</g>
	<g>
		<g>
			<g>
				<path fill="#FFFFFF" stroke="#B7B7B7" stroke-width="2" stroke-linejoin="round" stroke-miterlimit="10" d="M517.791,10.937
					c-1.482-4.351-2.372-4.549-2.372-4.549s-0.89,0.198-2.373,4.548s-1.581,5.339-1.581,5.339l3.954-0.001l3.952,0.001
					C519.371,16.275,519.273,15.285,517.791,10.937z"/>
				
					<rect x="511.449" y="16.275" fill="#FFFFFF" stroke="#B7B7B7" stroke-width="2" stroke-linejoin="round" stroke-miterlimit="10" width="7.908" height="57.764"/>
			</g>
		</g>
		
			<rect x="511.435" y="28.631" fill="#FFFFFF" stroke="#B7B7B7" stroke-width="2" stroke-linejoin="round" stroke-miterlimit="10" width="7.933" height="2.255"/>
	</g>
	<g>
		<g>
			<g>
				<path fill="#FFFFFF" stroke="#B7B7B7" stroke-width="2" stroke-linejoin="round" stroke-miterlimit="10" d="M526.465,21.392
					c-1.482-4.351-2.371-4.549-2.371-4.549s-0.889,0.198-2.374,4.548c-1.481,4.35-1.581,5.339-1.581,5.339l3.955-0.001l3.951,0.001
					C528.045,26.73,527.948,25.74,526.465,21.392z"/>
				
					<rect x="520.123" y="26.73" fill="#FFFFFF" stroke="#B7B7B7" stroke-width="2" stroke-linejoin="round" stroke-miterlimit="10" width="7.909" height="57.764"/>
			</g>
		</g>
		
			<rect x="520.109" y="39.086" fill="#FFFFFF" stroke="#B7B7B7" stroke-width="2" stroke-linejoin="round" stroke-miterlimit="10" width="7.932" height="2.255"/>
	</g>
	<polygon fill="#FFFFFF" stroke="#B7B7B7" stroke-width="2" stroke-linejoin="round" stroke-miterlimit="10" points="
		528.728,45.583 528.728,37.375 519.094,37.375 516.295,45.583 497.158,45.583 494.359,37.374 484.724,37.374 484.724,45.582 
		484.734,45.583 484.724,45.583 484.724,86.288 528.728,86.288 	"/>
</g>
<g id="_x3C_Group_x3E__3_">
	<g id="scissor_1_">
		<g>
			<path fill="none" stroke="#B7B7B7" stroke-width="2" stroke-linejoin="round" stroke-miterlimit="10" d="M124.39,132.872
				l-12.093,48.376c0,0,2.589,3.819,3.606,7.026c1.731,5.447-1.011,9.282-2.803,11.385c-0.01,0.013-0.016,0.025-0.027,0.037
				c-0.47,0.545-0.901,1.145-1.271,1.804c-2.743,4.909-1.226,10.976,3.391,13.552c4.612,2.577,10.576,0.691,13.318-4.217
				c2.743-4.906,1.224-10.976-3.388-13.556c-5.013-2.802-4.958-5.512-4.958-5.512l5.906-59.369
				C126.072,132.398,124.705,132.15,124.39,132.872z M114.03,202.745c2.013-3.6,6.382-4.986,9.768-3.094
				c3.385,1.89,4.498,6.341,2.487,9.939c-2.011,3.6-6.386,4.983-9.769,3.093C113.13,210.792,112.022,206.342,114.03,202.745z"/>
			<path fill="none" stroke="#B7B7B7" stroke-width="2" stroke-linejoin="round" stroke-miterlimit="10" d="M85.472,186.804
				c-2.744,4.904-1.225,10.969,3.387,13.546c4.614,2.578,10.579,0.69,13.325-4.218c0.368-0.659,0.655-1.341,0.871-2.029
				c0.005-0.016,0.012-0.027,0.019-0.039c0.852-2.633,2.683-6.976,8.229-8.359c3.266-0.812,7.88-0.614,7.88-0.614l34.863-35.648
				c0.451-0.646-0.479-1.681-0.479-1.681l-47.467,36.152c0,0-2.282,1.465-7.301-1.332C94.179,180.006,88.215,181.895,85.472,186.804
				z M87.699,188.049c2.013-3.599,6.384-4.986,9.771-3.096c3.387,1.888,4.499,6.335,2.483,9.935
				c-2.011,3.599-6.384,4.985-9.77,3.094C86.801,196.091,85.691,191.642,87.699,188.049z"/>
			<path fill="none" stroke="#B7B7B7" stroke-width="2" stroke-linejoin="round" stroke-miterlimit="10" d="M116.134,178.55
				c-0.484,0.864-0.128,1.984,0.796,2.501c0.923,0.514,2.061,0.23,2.545-0.635c0.483-0.871,0.13-1.986-0.796-2.504
				C117.759,177.397,116.62,177.68,116.134,178.55z"/>
		</g>
	</g>
</g>
<g>
	<g>
		<g>
			<path fill="#FFFFFF" stroke="#B7B7B7" stroke-width="2" stroke-linejoin="round" stroke-miterlimit="10" d="M139.264,159.908
				v9.261h15.344v-9.261c0-1.916-1.553-3.469-3.468-3.469h-8.405C140.817,156.439,139.264,157.992,139.264,159.908z"/>
			<path fill="#FFFFFF" stroke="#B7B7B7" stroke-width="2" stroke-linejoin="round" stroke-miterlimit="10" d="M142.735,216.178
				h8.405c1.915,0,3.468-1.554,3.468-3.469v-30.771h-15.344v30.771C139.264,214.625,140.817,216.178,142.735,216.178z"/>
			
				<rect x="141.971" y="173.328" fill="#FFFFFF" stroke="#B7B7B7" stroke-width="2" stroke-linejoin="round" stroke-miterlimit="10" width="9.93" height="8.611"/>
		</g>
		
			<rect x="143.669" y="177.111" fill="#FFFFFF" stroke="#B7B7B7" stroke-width="2" stroke-linejoin="round" stroke-miterlimit="10" width="1.781" height="1.779"/>
		
			<rect x="148.225" y="177.111" fill="#FFFFFF" stroke="#B7B7B7" stroke-width="2" stroke-linejoin="round" stroke-miterlimit="10" width="1.778" height="1.779"/>
	</g>
</g>
<g id="_x3C_Group_x3E__6_">
	<path fill="none" stroke="#B7B7B7" stroke-width="2" stroke-linejoin="round" stroke-miterlimit="10" d="M486.021,166.224
		c0.129,0.108,0.145,0.301,0.035,0.431l-29.5,34.915c-0.11,0.128-0.307,0.145-0.436,0.037l-8.996-7.535
		c-0.129-0.107-0.147-0.305-0.04-0.436l29.259-35.117c0.107-0.131,0.3-0.149,0.43-0.041L486.021,166.224z"/>
	<path fill="none" stroke="#B7B7B7" stroke-width="2" stroke-linejoin="round" stroke-miterlimit="10" d="M477.372,158.98
		l1.039-1.24c0.542-0.647,1.515-0.733,2.163-0.191l5.679,4.757c0.646,0.541,0.733,1.516,0.191,2.163l-1.039,1.24L477.372,158.98z"/>
	<polygon fill="none" stroke="#B7B7B7" stroke-width="2" stroke-linejoin="round" stroke-miterlimit="10" points="447.611,194.457 
		446.337,195.976 446.338,195.978 446.336,195.977 444.898,204.034 446.786,205.615 454.465,202.786 454.461,202.783 
		454.465,202.785 455.739,201.263 	"/>
	<path fill="none" stroke="#B7B7B7" stroke-width="2" stroke-linejoin="round" stroke-miterlimit="10" d="M446.774,205.6
		l-0.89,1.062c-0.1,0.12-0.312,0.198-0.471,0.172l-2.196-0.358c-0.156-0.026-0.203-0.146-0.102-0.268l1.808-2.158"/>
	<g>
		<polygon fill="none" stroke="#B7B7B7" stroke-width="2" stroke-linejoin="round" stroke-miterlimit="10" points="481.21,152.894 
			493.606,140.836 500.495,146.605 490.796,160.995 		"/>
		<path fill="none" stroke="#B7B7B7" stroke-width="2" stroke-linejoin="round" stroke-miterlimit="10" d="M486.375,152.755
			l8.847-10.562l3.688,3.089l-8.847,10.562c-0.192,0.229-0.513,0.28-0.713,0.112l-2.961-2.48
			C486.19,153.308,486.183,152.984,486.375,152.755"/>
	</g>
</g>
<g id="_x3C_Group_x3E__1_">
	<path fill="none" stroke="#B7B7B7" stroke-width="2" stroke-linejoin="round" stroke-miterlimit="10" d="M481.631,184.138
		c-0.129-0.107-0.145-0.301-0.035-0.43l29.5-34.916c0.11-0.127,0.307-0.145,0.436-0.037l8.996,7.535
		c0.129,0.107,0.147,0.305,0.04,0.436l-29.259,35.117c-0.107,0.131-0.3,0.15-0.43,0.041L481.631,184.138z"/>
	<path fill="none" stroke="#B7B7B7" stroke-width="2" stroke-linejoin="round" stroke-miterlimit="10" d="M490.28,191.382
		l-1.039,1.24c-0.542,0.648-1.515,0.734-2.163,0.191l-5.679-4.756c-0.646-0.541-0.733-1.516-0.191-2.164l1.039-1.24L490.28,191.382z
		"/>
	<polygon fill="none" stroke="#B7B7B7" stroke-width="2" stroke-linejoin="round" stroke-miterlimit="10" points="520.041,155.906 
		521.315,154.386 521.314,154.384 521.315,154.386 522.753,146.33 520.866,144.748 513.187,147.578 513.19,147.58 513.187,147.578 
		511.913,149.099 	"/>
	<path fill="none" stroke="#B7B7B7" stroke-width="2" stroke-linejoin="round" stroke-miterlimit="10" d="M520.878,144.763
		l0.89-1.062c0.1-0.121,0.312-0.199,0.471-0.172l2.196,0.357c0.156,0.027,0.203,0.146,0.101,0.268l-1.808,2.158"/>
	<g>
		<polygon fill="none" stroke="#B7B7B7" stroke-width="2" stroke-linejoin="round" stroke-miterlimit="10" points="486.441,197.468 
			474.045,209.527 467.157,203.757 476.856,189.369 		"/>
		<path fill="none" stroke="#B7B7B7" stroke-width="2" stroke-linejoin="round" stroke-miterlimit="10" d="M481.276,197.609
			l-8.847,10.562l-3.688-3.09l8.847-10.562c0.192-0.229,0.513-0.279,0.713-0.111l2.961,2.48
			C481.462,197.054,481.469,197.379,481.276,197.609"/>
	</g>
</g>
<g>
	<g>
		<path fill="none" stroke="#B7B7B7" stroke-width="2" stroke-linejoin="round" stroke-miterlimit="10" d="M328.502,18.664
			c-5.529-1.086-10.932,2.07-16.065,2.07c-5.129,0-9.703-3.156-15.226-2.07c-5.528,1.082-12.305,8.091-12.305,19.049
			c0,10.954,10.367,26.258,18.361,26.258c7.984,0,7.311-1.868,9.17-1.876c1.865,0.008,1.192,1.876,9.176,1.876
			c7.992,0,18.363-15.304,18.363-26.258C339.977,26.755,334.033,19.746,328.502,18.664"/>
		<path fill="#FFFFFF" stroke="#B7B7B7" stroke-width="2" stroke-linejoin="round" stroke-miterlimit="10" d="M312.442,9.202
			c-0.615,0-1.111,0.499-1.111,1.115v12.018c0,0.608,0.496,1.106,1.111,1.106c0.612,0,1.109-0.498,1.109-1.106V10.318
			C313.551,9.701,313.054,9.202,312.442,9.202"/>
		<path fill="#FFFFFF" stroke="#B7B7B7" stroke-width="2" stroke-linejoin="round" stroke-miterlimit="10" d="M330.151,6.986
			c-0.029,0.002-0.057,0.005-0.086,0.007c0.002-0.028,0.006-0.054,0.008-0.083L329.983,7c-7.735,0.574-11.134,1.562-15.088,5.518
			c-3.947,3.946-5.01,9.282-2.425,11.994l-0.007,0.006c0.016,0.015,0.032,0.025,0.048,0.04c0.012,0.013,0.02,0.026,0.032,0.037
			l0.004-0.005c2.712,2.587,8.049,1.521,11.995-2.426c3.954-3.955,4.942-7.353,5.517-15.086L330.151,6.986z"/>
	</g>
</g>
<g>
	
		<rect x="257.975" y="232.485" fill="none" stroke="#B7B7B7" stroke-width="2" stroke-linejoin="round" stroke-miterlimit="10" width="25.872" height="6.626"/>
	<path fill="none" stroke="#B7B7B7" stroke-width="2" stroke-linejoin="round" stroke-miterlimit="10" d="M284.76,186.792
		c0-1.155,0-1.995,0-1.995h-1.572h-3.732h-8.453h-0.252h-8.672h-3.77h-1.565l0.011,1.995h-8.48l0.101,1.349
		c0.054,0.717,1.44,17.529,13.259,23.297c1.49,3.001,3.921,5.209,6.795,5.995c-0.049,5.39-0.284,11.271-1.037,12.637
		c-0.506,0.919-1.215,1.735-1.926,2.415h10.721c-0.773-0.754-1.562-1.668-2.111-2.662c-0.748-1.354-0.975-7.09-1.017-12.385
		c2.868-0.775,5.297-2.969,6.791-5.952l0.018,0.034c11.967-5.692,13.362-22.658,13.416-23.379l0.102-1.349H284.76z M253.044,190.305
		h5.725l0.037,7.338c0.291,3.706,1.121,7.131,2.338,10.076C255.343,202.496,253.532,193.668,253.044,190.305z M280.221,207.983
		c0.278-0.662,0.539-1.35,0.777-2.06c0.006-0.016,0.01-0.034,0.016-0.052c0.089-0.266,0.178-0.534,0.258-0.808
		c0.005-0.015,0.009-0.032,0.016-0.047c0.163-0.547,0.314-1.104,0.453-1.674c0.004-0.03,0.016-0.058,0.02-0.089
		c0.067-0.271,0.127-0.545,0.188-0.822c0.008-0.039,0.017-0.076,0.023-0.116c0.06-0.279,0.116-0.561,0.168-0.848
		c0.002-0.011,0.005-0.022,0.008-0.036c0.051-0.279,0.096-0.562,0.143-0.846c0.006-0.035,0.012-0.068,0.016-0.101
		c0.046-0.282,0.086-0.563,0.123-0.848c0.008-0.052,0.014-0.103,0.02-0.155c0.039-0.283,0.072-0.569,0.101-0.857
		c0.003-0.039,0.01-0.076,0.013-0.113c0.027-0.281,0.054-0.566,0.077-0.851c0.003-0.026,0.003-0.053,0.007-0.08
		c0.023-0.292,0.04-0.586,0.055-0.884c0.004-0.053,0.009-0.111,0.012-0.168c0.014-0.291,0.023-0.581,0.031-0.877
		c0.004-0.05,0.004-0.104,0.008-0.153c0.004-0.308,0.01-0.618,0.01-0.928c0-0.364,0-2.304,0-4.267h5.854
		C288.124,193.723,286.268,202.794,280.221,207.983z"/>
</g>
<g>
	<g>
		<polygon fill="#FFFFFF" stroke="#B7B7B7" stroke-width="2" stroke-linejoin="round" stroke-miterlimit="10" points="
			302.433,234.974 301.142,226.979 294.34,231.376 304.401,208.744 312.492,212.342 		"/>
		<polygon fill="#FFFFFF" stroke="#B7B7B7" stroke-width="2" stroke-linejoin="round" stroke-miterlimit="10" points="
			315.087,234.97 316.376,226.975 323.178,231.373 313.112,208.743 305.019,212.342 		"/>
	</g>
	<path fill="#FFFFFF" stroke="#B7B7B7" stroke-width="2" stroke-linejoin="round" stroke-miterlimit="10" d="M320.077,210.534
		c0,6.253-5.066,11.323-11.32,11.323c-6.253,0.001-11.323-5.066-11.323-11.318c-0.003-6.252,5.066-11.321,11.32-11.323
		C315.004,199.214,320.075,204.282,320.077,210.534z"/>
	<path fill="#FFFFFF" stroke="#B7B7B7" stroke-width="2" stroke-linejoin="round" stroke-miterlimit="10" d="M314.092,210.477
		c0.031,2.947-2.332,5.363-5.278,5.396c-2.947,0.031-5.365-2.332-5.396-5.279c-0.033-2.946,2.332-5.362,5.279-5.396
		C311.643,205.168,314.059,207.531,314.092,210.477z"/>
</g>
<path fill="#FFFFFF" stroke="#B7B7B7" stroke-width="2" stroke-linejoin="round" stroke-miterlimit="10" d="M520.139,76.653
	c0,0.553-0.478,1-1.07,1h-24.666c-0.59,0-1.07-0.447-1.07-1V59.394c0-0.552,0.48-1,1.07-1h24.666c0.592,0,1.07,0.448,1.07,1V76.653z
	"/>
<g>
	<path fill="#FFFFFF" d="M131.629,50.703c0,0-0.387-13.81-0.404-13.976c-0.027-0.256-0.094-0.509-0.201-0.752
		c-0.272-0.618-0.769-1.092-1.398-1.336l-4.092-1.587c-0.63-0.244-1.316-0.229-1.933,0.044c-0.618,0.272-1.092,0.769-1.336,1.398
		l-2.808,7.237c-0.428-0.103-0.862-0.191-1.301-0.265v-2.729c0-3.786-3.08-6.866-6.866-6.866s-6.866,3.08-6.866,6.866v2.729
		c-0.44,0.074-0.875,0.163-1.304,0.266l-2.808-7.238c-0.244-0.629-0.719-1.126-1.336-1.398c-0.617-0.272-1.304-0.288-1.933-0.044
		l-4.092,1.587c-0.629,0.244-1.126,0.719-1.398,1.336c-0.103,0.234-0.169,0.478-0.198,0.724c-0.02,0.174-0.406,14.008-0.406,14.008
		c-1.739,2.913-2.741,6.315-2.741,9.947v37.166c0,2.348,1.91,4.259,4.259,4.259h37.648c2.348,0,4.259-1.911,4.259-4.259V60.656
		C134.372,57.022,133.37,53.617,131.629,50.703z M129.285,47.55c-0.447-0.49-0.92-0.957-1.415-1.399l1.275-3.287L129.285,47.55z
		 M124.36,35.307c0.056-0.143,0.218-0.214,0.36-0.159l4.092,1.587c0.089,0.034,0.133,0.099,0.154,0.147
		c0.021,0.048,0.039,0.124,0.005,0.213l-2.945,7.594c-1.355-0.946-2.835-1.726-4.411-2.306L124.36,35.307z M111.29,34.119
		c2.296,0,4.206,1.685,4.559,3.883c-1.223-1.087-2.828-1.744-4.559-1.744c-1.697,0-3.298,0.612-4.556,1.731
		C107.092,35.797,108.998,34.119,111.29,34.119z M115.488,41.203c-0.192-0.006-8.205-0.006-8.397,0
		c0.226-0.494,0.538-0.949,0.933-1.345c0.872-0.872,2.032-1.352,3.265-1.352C113.125,38.506,114.751,39.602,115.488,41.203z
		 M93.609,36.883c0.021-0.048,0.065-0.113,0.154-0.147l4.092-1.587c0.143-0.056,0.305,0.016,0.36,0.159l2.746,7.078
		c-1.576,0.58-3.056,1.36-4.411,2.307l-2.946-7.596C93.569,37.007,93.587,36.931,93.609,36.883z M93.43,42.863l1.276,3.289
		c-0.495,0.443-0.968,0.91-1.415,1.4L93.43,42.863z M132.124,97.822c0,1.109-0.902,2.011-2.011,2.011H92.466
		c-1.109,0-2.011-0.902-2.011-2.011V60.656c0-9.492,7.722-17.214,17.214-17.214h7.241c9.492,0,17.214,7.722,17.214,17.214
		L132.124,97.822L132.124,97.822z"/>
	<path fill="#FFFFFF" d="M96.037,69.9c-1.815,0-3.291,1.476-3.291,3.291v21.183c0,1.815,1.476,3.291,3.291,3.291h30.506
		c1.815,0,3.291-1.476,3.291-3.291V73.191c0-1.815-1.476-3.291-3.291-3.291H96.037z M126.543,95.416H96.037
		c-0.575,0-1.043-0.468-1.043-1.043V80.244h28.298v2.556h2.248v-2.556h2.045v14.129C127.585,94.948,127.118,95.416,126.543,95.416z
		 M127.585,73.191v4.806H94.994v-4.806c0-0.575,0.468-1.043,1.043-1.043h30.506C127.118,72.148,127.585,72.616,127.585,73.191z"/>
	<path fill="#FFFFFF" d="M118.425,48.064h-14.27v6.419h14.27V48.064z M116.177,52.234h-9.774v-1.923h9.774V52.234z"/>
</g>
<g>
	<path fill="#398AFF" d="M675.467,92.516c0,0-0.537-19.182-0.561-19.412c-0.037-0.356-0.13-0.707-0.279-1.044
		c-0.378-0.858-1.068-1.517-1.942-1.856l-5.683-2.205c-0.874-0.339-1.828-0.317-2.686,0.061c-0.858,0.378-1.517,1.068-1.856,1.942
		l-3.9,10.052c-0.595-0.143-1.197-0.266-1.807-0.369v-3.791c0-5.259-4.278-9.537-9.537-9.537c-5.259,0-9.537,4.278-9.537,9.537
		v3.791c-0.611,0.103-1.215,0.226-1.812,0.37l-3.9-10.054c-0.339-0.874-0.998-1.564-1.856-1.942c-0.857-0.378-1.811-0.4-2.686-0.061
		l-5.683,2.205c-0.874,0.339-1.564,0.998-1.942,1.856c-0.143,0.325-0.234,0.663-0.275,1.006c-0.028,0.242-0.565,19.458-0.565,19.458
		c-2.416,4.046-3.807,8.772-3.807,13.817v51.623c0,3.262,2.654,5.915,5.915,5.915h52.293c3.262,0,5.915-2.654,5.915-5.915V106.34
		C679.278,101.292,677.886,96.563,675.467,92.516z M672.212,88.136c-0.621-0.681-1.278-1.329-1.965-1.944l1.771-4.566
		L672.212,88.136z M665.371,71.131c0.077-0.199,0.302-0.298,0.501-0.221l5.683,2.205c0.124,0.048,0.185,0.138,0.214,0.204
		c0.03,0.067,0.055,0.173,0.006,0.296l-4.091,10.548c-1.882-1.314-3.938-2.397-6.127-3.203L665.371,71.131z M647.216,69.48
		c3.189,0,5.842,2.34,6.332,5.394c-1.699-1.51-3.928-2.423-6.332-2.423c-2.357,0-4.582,0.85-6.329,2.404
		C641.386,71.811,644.033,69.48,647.216,69.48z M653.047,79.32c-0.266-0.008-11.396-0.008-11.663,0
		c0.314-0.686,0.747-1.318,1.296-1.868c1.211-1.211,2.822-1.878,4.535-1.878C649.765,75.573,652.024,77.097,653.047,79.32z
		 M622.657,73.319c0.03-0.067,0.091-0.157,0.214-0.204l5.683-2.205c0.199-0.077,0.424,0.022,0.501,0.221l3.814,9.832
		c-2.189,0.806-4.244,1.889-6.127,3.204l-4.093-10.551C622.603,73.492,622.628,73.386,622.657,73.319z M622.409,81.626l1.772,4.569
		c-0.687,0.615-1.344,1.264-1.966,1.945L622.409,81.626z M676.155,157.963c0,1.54-1.253,2.793-2.793,2.793H621.07
		c-1.54,0-2.793-1.253-2.793-2.793V106.34c0-13.184,10.726-23.91,23.91-23.91h10.058c13.184,0,23.91,10.726,23.91,23.91
		L676.155,157.963L676.155,157.963z"/>
	<path fill="#398AFF" d="M626.03,119.18c-2.521,0-4.571,2.051-4.571,4.571v29.423c0,2.52,2.051,4.571,4.571,4.571h42.372
		c2.52,0,4.571-2.051,4.571-4.571v-29.423c0-2.52-2.051-4.571-4.571-4.571H626.03z M668.403,154.622H626.03
		c-0.799,0-1.448-0.65-1.448-1.448v-19.625h39.305v3.551h3.123v-3.551h2.841v19.625
		C669.851,153.972,669.201,154.622,668.403,154.622z M669.851,123.751v6.675h-45.269v-6.675c0-0.799,0.65-1.448,1.448-1.448h42.372
		C669.201,122.302,669.851,122.952,669.851,123.751z"/>
	<path fill="#398AFF" d="M657.127,88.849h-19.821v8.916h19.821V88.849z M654.004,94.643h-13.576v-2.671h13.576V94.643z"/>
</g>
<g>
	<path fill="#DDDDDD" d="M1197.971,28.398c0,0-1.811-64.689-1.894-65.468c-0.126-1.2-0.439-2.386-0.939-3.522
		c-1.276-2.893-3.602-5.115-6.549-6.259l-19.167-7.435c-2.949-1.144-6.165-1.071-9.057,0.204c-2.893,1.276-5.115,3.602-6.259,6.55
		l-13.153,33.901c-2.007-0.482-4.038-0.897-6.094-1.243v-12.784c0-17.735-14.428-32.163-32.163-32.163s-32.164,14.428-32.164,32.163
		v12.785c-2.061,0.348-4.098,0.763-6.11,1.247l-13.154-33.906c-1.144-2.948-3.367-5.274-6.259-6.55
		c-2.892-1.276-6.108-1.349-9.057-0.204l-19.167,7.435c-2.947,1.144-5.273,3.366-6.549,6.259c-0.483,1.095-0.791,2.237-0.926,3.393
		c-0.096,0.815-1.904,65.62-1.904,65.62c-8.148,13.645-12.839,29.583-12.839,46.598v174.097c0,11,8.949,19.949,19.949,19.949
		h176.358c11,0,19.949-8.95,19.949-19.949V75.02C1210.824,57.995,1206.128,42.048,1197.971,28.398z M1186.995,13.626
		c-2.096-2.297-4.31-4.483-6.627-6.555l5.974-15.399L1186.995,13.626z M1163.923-43.722c0.26-0.671,1.02-1.005,1.689-0.745
		l19.167,7.435c0.417,0.161,0.624,0.465,0.722,0.689c0.1,0.225,0.184,0.582,0.022,0.999l-13.798,35.572
		c-6.348-4.433-13.282-8.083-20.663-10.801L1163.923-43.722z M1102.696-49.29c10.756,0,19.701,7.892,21.354,18.19
		c-5.729-5.094-13.249-8.172-21.355-8.172c-7.948,0-15.451,2.868-21.343,8.108C1083.033-41.43,1091.962-49.29,1102.696-49.29z
		 M1122.361-16.105c-0.899-0.026-38.434-0.026-39.333,0c1.06-2.315,2.52-4.446,4.371-6.301c4.085-4.085,9.518-6.334,15.295-6.334
		C1111.292-28.74,1118.91-23.602,1122.361-16.105z M1019.872-36.343c0.1-0.225,0.306-0.528,0.722-0.689l19.167-7.435
		c0.671-0.26,1.429,0.074,1.688,0.745l12.863,33.157c-7.382,2.719-14.314,6.37-20.662,10.805l-13.802-35.582
		C1019.688-35.761,1019.772-36.117,1019.872-36.343z M1019.034-8.327l5.977,15.409c-2.318,2.075-4.533,4.262-6.629,6.56
		L1019.034-8.327z M1200.292,249.117c0,5.193-4.225,9.418-9.418,9.418h-176.357c-5.193,0-9.418-4.225-9.418-9.418V75.02
		c0-44.463,36.173-80.636,80.637-80.636h33.921c44.462,0,80.636,36.173,80.636,80.636L1200.292,249.117L1200.292,249.117z"/>
	<path fill="#DDDDDD" d="M1031.246,118.32c-8.5,0-15.416,6.916-15.416,15.416v99.227c0,8.5,6.916,15.416,15.416,15.416h142.9
		c8.5,0,15.416-6.916,15.416-15.416v-99.227c0-8.5-6.916-15.416-15.416-15.416H1031.246z M1174.146,237.848h-142.9
		c-2.693,0-4.885-2.191-4.885-4.885v-66.185h132.557v11.974h10.531v-11.974h9.581v66.185
		C1179.031,235.656,1176.839,237.848,1174.146,237.848z M1179.031,133.736v22.511h-152.669v-22.511c0-2.693,2.191-4.885,4.885-4.885
		h142.9C1176.839,128.852,1179.031,131.043,1179.031,133.736z"/>
	<path fill="#DDDDDD" d="M1136.12,16.032h-66.847v30.069h66.847V16.032z M1125.588,35.57h-45.785v-9.007h45.785V35.57z"/>
</g>
<g>
	<path fill="#DDDDDD" d="M1155.486-136.046c0,0-1.811-64.689-1.894-65.468c-0.126-1.2-0.439-2.386-0.939-3.522
		c-1.276-2.893-3.602-5.115-6.549-6.259l-19.167-7.435c-2.949-1.144-6.165-1.071-9.057,0.204c-2.893,1.276-5.115,3.602-6.259,6.55
		l-13.153,33.901c-2.007-0.482-4.038-0.897-6.094-1.243v-12.785c0-17.735-14.428-32.163-32.163-32.163s-32.164,14.428-32.164,32.163
		v12.785c-2.061,0.348-4.098,0.763-6.11,1.247l-13.154-33.906c-1.144-2.948-3.367-5.274-6.259-6.55
		c-2.892-1.276-6.108-1.349-9.057-0.204l-19.167,7.435c-2.947,1.144-5.273,3.366-6.549,6.259c-0.483,1.095-0.791,2.237-0.926,3.393
		c-0.095,0.815-1.904,65.62-1.904,65.62c-8.148,13.645-12.839,29.583-12.839,46.598V84.673c0,11,8.949,19.949,19.949,19.949h176.358
		c11,0,19.949-8.95,19.949-19.949V-89.424C1168.339-106.449,1163.643-122.396,1155.486-136.046z M1144.509-150.817
		c-2.096-2.297-4.31-4.483-6.627-6.555l5.973-15.399L1144.509-150.817z M1121.438-208.166c0.26-0.671,1.019-1.005,1.688-0.745
		l19.167,7.435c0.417,0.161,0.624,0.465,0.723,0.689c0.1,0.225,0.184,0.582,0.022,0.999l-13.798,35.572
		c-6.348-4.433-13.282-8.083-20.663-10.801L1121.438-208.166z M1060.211-213.734c10.756,0,19.701,7.892,21.354,18.19
		c-5.729-5.094-13.249-8.172-21.355-8.172c-7.948,0-15.451,2.868-21.343,8.108C1040.548-205.874,1049.477-213.734,1060.211-213.734z
		 M1079.876-180.548c-0.899-0.026-38.434-0.026-39.333,0c1.059-2.315,2.52-4.446,4.371-6.301c4.085-4.085,9.518-6.334,15.295-6.334
		C1068.807-193.184,1076.425-188.046,1079.876-180.548z M977.387-200.786c0.1-0.225,0.306-0.528,0.722-0.689l19.167-7.435
		c0.671-0.26,1.429,0.074,1.689,0.745l12.863,33.157c-7.382,2.719-14.314,6.37-20.662,10.805l-13.802-35.582
		C977.203-200.204,977.287-200.56,977.387-200.786z M976.549-172.77l5.977,15.409c-2.318,2.075-4.533,4.262-6.629,6.56
		L976.549-172.77z M1157.807,84.673c0,5.193-4.225,9.418-9.418,9.418H972.032c-5.193,0-9.418-4.225-9.418-9.418V-89.424
		c0-44.463,36.173-80.636,80.637-80.636h33.921c44.462,0,80.636,36.173,80.636,80.636L1157.807,84.673L1157.807,84.673z"/>
	<path fill="#DDDDDD" d="M988.761-46.123c-8.5,0-15.416,6.916-15.416,15.416v99.227c0,8.5,6.916,15.416,15.416,15.416h142.9
		c8.5,0,15.416-6.916,15.416-15.416v-99.227c0-8.5-6.916-15.416-15.416-15.416H988.761z M1131.661,73.404h-142.9
		c-2.693,0-4.884-2.191-4.884-4.884V2.335h132.557v11.974h10.531V2.335h9.581V68.52
		C1136.545,71.213,1134.354,73.404,1131.661,73.404z M1136.545-30.707v22.511H983.876v-22.511c0-2.693,2.191-4.884,4.884-4.884
		h142.9C1134.354-35.592,1136.545-33.401,1136.545-30.707z"/>
	<path fill="#DDDDDD" d="M1093.635-148.411h-66.847v30.069h66.847V-148.411z M1083.103-128.873h-45.784v-9.007h45.784V-128.873z"/>
</g>
<rect x="562.205" y="205.445" fill="#398AFF" width="505.913" height="33.665"/>
<line fill="none" stroke="#B7B7B7" stroke-width="2" stroke-miterlimit="10" stroke-dasharray="2" x1="573.046" y1="0.87" x2="573.046" y2="23.036"/>
<line fill="none" stroke="#B7B7B7" stroke-width="2" stroke-linejoin="round" stroke-miterlimit="10" x1="573.046" y1="26.501" x2="573.046" y2="49.36"/>
</svg>
