<svg xmlns="http://www.w3.org/2000/svg" width="42.275" height="38.511" viewBox="0 0 42.275 38.511">
  <g id="Group_79790" data-name="Group 79790" opacity="0.9">
    <g id="np_path_2011998_000000" transform="translate(0 0)">
      <path id="Path_66312" data-name="Path 66312" d="M20.8,61.363q.941,1.956,1.886,3.906c.088.186.176.369.271.553l-.147-.353a6.234,6.234,0,0,0,1.82,2.578,5.332,5.332,0,0,0,2.886,1.212,5.743,5.743,0,0,0,2.114-.212,12.567,12.567,0,0,1,1.627-.441l-.392.055a3.677,3.677,0,0,1,.951,0l-.392-.055a5.481,5.481,0,0,1,1.333.382l-.353-.147a22.308,22.308,0,0,1,3.023,1.71c.471.294.937.588,1.4.892a1.477,1.477,0,0,0,2.01-.529,1.5,1.5,0,0,0-.529-2.01c-.382-.249-.765-.494-1.153-.741-.873-.549-1.751-1.118-2.67-1.582A7.732,7.732,0,0,0,31.66,65.7a5.079,5.079,0,0,0-1.863.216,11.927,11.927,0,0,1-1.637.435l.392-.055a4.364,4.364,0,0,1-1.108.01l.392.055a3.552,3.552,0,0,1-.892-.241l.353.147a3.306,3.306,0,0,1-.51-.265c-.078-.049-.153-.1-.231-.153-.2-.133.3.249.127.1-.024-.024-.055-.043-.082-.069-.127-.112-.255-.231-.369-.353-.055-.059-.108-.118-.161-.18-.029-.035-.059-.075-.088-.108-.127-.153.225.3.133.173a5.415,5.415,0,0,1-.608-1.039l.147.353c-.6-1.441-1.343-2.827-2.019-4.235-.1-.206-.2-.412-.3-.618a1.474,1.474,0,0,0-2.01-.529,1.519,1.519,0,0,0-.525,2.018Z" transform="translate(-13.883 -37.023)" fill="#0eac87" opacity="0.3"/>
      <path id="Path_66313" data-name="Path 66313" d="M11.728,15.07a6.755,6.755,0,0,0-6.755,6.755c0,3.731,4.3,10.47,6.755,13.362,2.447-2.892,6.755-9.631,6.755-13.362a6.756,6.756,0,0,0-6.755-6.755Zm0,9.935a3.2,3.2,0,1,1,3.2-3.2A3.2,3.2,0,0,1,11.728,25Z" transform="translate(-4.973 -15.07)" fill="#0eac87" opacity="0.7"/>
      <path id="Path_66316" data-name="Path 66316" d="M61.294,22.6A11.333,11.333,0,0,0,49.961,33.931c0,6.259,7.221,17.568,11.333,22.415,4.1-4.847,11.333-16.156,11.333-22.415A11.334,11.334,0,0,0,61.294,22.6Zm0,16.264A4.961,4.961,0,1,1,66.254,33.9,4.959,4.959,0,0,1,61.294,38.862Z" transform="translate(-31.332 -18.819)" fill="#0eac87"/>
      <path id="Path_66317" data-name="Path 66317" d="M60.321,20.645a12.312,12.312,0,0,0-12.3,11.833A18.278,18.278,0,0,0,49.793,40.1a59.292,59.292,0,0,0,4.421,8.411A69.22,69.22,0,0,0,59.1,55.44c.173.212.349.425.525.631a.983.983,0,0,0,1.388,0,62.967,62.967,0,0,0,4.8-6.6,63.314,63.314,0,0,0,4.519-8.192,22.332,22.332,0,0,0,2.284-7.872,12.3,12.3,0,0,0-11.137-12.7,10.047,10.047,0,0,0-1.163-.065.98.98,0,0,0,0,1.961c.376,0,.755.02,1.127.055l.271.029c.137.016-.2-.029-.059-.01.043,0,.088.016.133.02.186.029.373.063.559.1.357.075.71.161,1.059.271.157.049.314.1.467.157a2.359,2.359,0,0,1,.549.212c-.016-.01-.212-.094-.055-.02.039.02.078.035.118.055.078.035.157.075.235.108.157.075.31.153.461.235.314.167.618.353.912.549.141.094.284.2.422.294.024.02.249.2.133.1s0,0,.029.024.082.069.127.1c.274.225.533.461.79.71s.49.51.716.78c.055.063.108.133.161.2.02.024.075.074.078.1,0-.016-.141-.186-.035-.043s.206.275.3.416a12.2,12.2,0,0,1,1.039,1.863c.075.157-.01-.039-.02-.055a.63.63,0,0,1,.049.122c.035.078.063.161.094.245.063.173.127.349.186.525.112.349.206.7.284,1.055.039.176.075.349.1.525.016.088.029.176.039.265.02.112.049.035-.01-.059a.47.47,0,0,1,.02.167c.039.373.063.749.069,1.127q.006.4-.024.794c-.01.133-.02.259-.035.392,0,.069-.016.133-.024.2-.02.157.016-.1.016-.108-.01.043-.01.082-.02.127a15.338,15.338,0,0,1-.373,1.755c-.167.624-.363,1.239-.578,1.849-.118.337-.245.671-.376,1-.059.153-.118.3-.18.451-.035.078-.063.161-.1.241l-.016.035c.063-.147-.016.035-.029.063a60.045,60.045,0,0,1-4.278,8.023q-1.147,1.838-2.4,3.608c-.382.539-.769,1.074-1.167,1.6-.088.118-.18.241-.275.357-.043.059-.2.255-.016.02-.043.059-.088.112-.133.173q-.271.347-.549.69c-.161.2-.329.4-.494.592h1.388c-.357-.422-.706-.853-1.043-1.29-.043-.059-.088-.112-.133-.173-.1-.127.141.18-.016-.02-.1-.127-.2-.255-.29-.382-.2-.259-.388-.514-.578-.78q-1.241-1.706-2.388-3.48a64.024,64.024,0,0,1-4.435-7.97c-.147-.324-.294-.647-.431-.974-.016-.039-.039-.078-.055-.122.078.225.043.1.024.055-.035-.078-.069-.161-.1-.241-.069-.173-.137-.337-.206-.51-.249-.631-.48-1.274-.682-1.925A18.335,18.335,0,0,1,50.2,35.09c-.063-.294-.118-.588-.161-.882,0-.024,0-.049-.01-.075-.02-.122.029.231.016.108-.01-.069-.016-.133-.024-.2-.016-.137-.029-.275-.039-.416a10.523,10.523,0,0,1,.049-1.957c0-.043.016-.094.016-.133,0,.024-.035.235-.01.059.016-.088.024-.176.039-.265.029-.186.069-.373.108-.559.078-.353.176-.706.284-1.055.049-.157.1-.31.161-.467.029-.082.063-.161.094-.245.016-.039.035-.078.049-.122.043-.112-.082.192-.01.024.147-.324.3-.647.474-.961s.357-.612.559-.906c.1-.141.2-.278.3-.416.059-.082,0-.078-.035.043a.782.782,0,0,1,.078-.1l.18-.225A11.671,11.671,0,0,1,53.8,24.872a.972.972,0,0,1,.2-.161c-.122.039-.127.094-.043.035.035-.024.069-.055.1-.078.147-.108.294-.212.447-.314.294-.2.6-.382.912-.549.153-.082.31-.161.461-.235.078-.039.157-.075.235-.108.039-.02.078-.035.118-.055.167-.075-.137.055-.024.01.333-.133.671-.259,1.02-.369s.682-.192,1.024-.259c.176-.035.353-.069.525-.094.043,0,.088-.016.133-.02.176-.024-.035.01-.059.01a3.293,3.293,0,0,0,.337-.039c.363-.035.729-.049,1.094-.055a.991.991,0,0,0,.98-.98.943.943,0,0,0-.945-.967Z" transform="translate(-30.36 -17.847)" fill="#0eac87"/>
      <path id="Path_66318" data-name="Path 66318" d="M66.662,43.2c-.137,0-.274,0-.412-.016-.043,0-.088-.01-.133-.016-.235-.024.225.043,0,0A5.373,5.373,0,0,1,65.407,43c-.088-.029-.31-.063-.369-.133.055.063.161.075.055.02-.059-.029-.118-.055-.176-.082a5.916,5.916,0,0,1-.608-.363c-.039-.029-.133-.075-.157-.112.035.024.063.049.1.075a.806.806,0,0,1-.1-.082c-.082-.069-.161-.141-.235-.216s-.153-.153-.225-.231c-.043-.049-.082-.094-.127-.141-.029-.035-.055-.063-.082-.1.078.108.1.133.055.075-.127-.186-.255-.369-.369-.565-.055-.094-.1-.192-.147-.29l-.029-.059c-.043-.1-.035-.078.02.055-.039-.035-.063-.161-.082-.212a4.6,4.6,0,0,1-.186-.667c-.016-.063-.024-.133-.035-.2-.035-.186,0,.059,0,.063-.059-.063-.029-.353-.035-.441a5.821,5.821,0,0,1,.024-.716c.02-.235-.039.225,0,0,.01-.043.016-.088.024-.133.029-.141.059-.278.1-.416.035-.118.069-.231.112-.343.02-.049.039-.1.059-.153.043-.133-.108.22-.01.024a5.448,5.448,0,0,1,.376-.676c.049-.075.112-.22.186-.259-.137.082-.088.108-.016.024.035-.039.069-.082.1-.122a6.18,6.18,0,0,1,.553-.533c.078-.069.01-.063-.049.035a.569.569,0,0,1,.157-.112c.088-.063.176-.122.271-.176s.206-.118.31-.173c.049-.024.1-.049.147-.075s.078-.035.118-.055c-.137.055-.153.063-.055.024a6.405,6.405,0,0,1,.624-.2c.118-.029.235-.055.357-.075.153-.024.063-.074-.029,0,.043-.035.212-.02.271-.024a5.012,5.012,0,0,1,.686,0c.069,0,.137.01.2.02.225.02-.173-.029-.029,0s.284.049.422.082a6.059,6.059,0,0,1,.623.2c.216.078-.2-.1,0,0,.049.024.1.043.147.069.127.063.245.133.369.2.094.055.18.112.271.176.035.024.137.075.157.112,0-.01-.18-.153-.049-.035a5.073,5.073,0,0,1,.553.533,1.209,1.209,0,0,1,.082.1.386.386,0,0,1,.039.049c.063.082.055.063-.035-.049.069.043.137.192.186.259a6.648,6.648,0,0,1,.376.676c.078.167-.016-.049-.02-.055a.573.573,0,0,1,.069.18,3.02,3.02,0,0,1,.1.31c.039.127.069.255.1.382a4.68,4.68,0,0,1,.043.267c-.02-.153-.024-.173-.01-.059a6.1,6.1,0,0,1,.029.682c0,.137-.016.271-.029.408-.016.153.024-.039.01-.059.024.029-.039.225-.049.265a5.207,5.207,0,0,1-.22.755c-.01.02-.016.039-.024.059-.039.1-.035.078.024-.055a1.184,1.184,0,0,1-.082.176c-.063.127-.127.249-.2.369s-.147.235-.231.349c-.02.024-.055.094-.078.1.088-.112.1-.127.035-.049-.029.035-.055.063-.082.1a5.444,5.444,0,0,1-.545.539.393.393,0,0,1-.049.039c-.082.063-.063.055.049-.035-.024.043-.112.082-.157.112-.112.078-.231.157-.353.225s-.245.137-.373.2a.673.673,0,0,1-.118.055c.137-.055.153-.063.055-.024-.039.016-.082.029-.122.043a5.2,5.2,0,0,1-.761.212.8.8,0,0,1-.2.035c.153-.02.173-.024.059-.01-.024,0-.043,0-.069,0a2.47,2.47,0,0,1-.449.035.98.98,0,1,0,0,1.961,6.028,6.028,0,0,0,5.608-3.974,5.954,5.954,0,0,0-1.761-6.49,6.12,6.12,0,0,0-3.435-1.4,5.866,5.866,0,0,0-3.48.839,5.94,5.94,0,0,0,3.074,11.025.992.992,0,0,0,.98-.98,1.006,1.006,0,0,0-.986-.978Z" transform="translate(-36.7 -24.138)" fill="#0eac87"/>
    </g>
  </g>
</svg>
